<svg width="48" height="48" viewBox="0 0 48 48" fill="none" xmlns="http://www.w3.org/2000/svg">
<g clip-path="url(#clip0_71_2021)">
<path d="M48 0H0V48H48V0Z" fill="white"/>
<path fill-rule="evenodd" clip-rule="evenodd" d="M39.6998 24.3637C39.6998 23.2291 39.5979 22.1382 39.4085 21.0909H24.3202V27.28H32.9421C32.5707 29.2801 31.442 30.9746 29.7453 32.1091V36.1237H34.9228C37.9521 33.3382 39.6998 29.2364 39.6998 24.3637Z" fill="#4285F4"/>
<path fill-rule="evenodd" clip-rule="evenodd" d="M24.3196 39.9999C28.6451 39.9999 32.2716 38.5672 34.9222 36.1236L29.7447 32.109C28.3102 33.069 26.4751 33.6363 24.3196 33.6363C20.147 33.6363 16.6152 30.8217 15.3555 27.0399H10.0032V31.1854C12.6393 36.4145 18.0571 39.9999 24.3196 39.9999Z" fill="#34A853"/>
<path fill-rule="evenodd" clip-rule="evenodd" d="M15.3561 27.0399C15.0357 26.0799 14.8536 25.0545 14.8536 23.9999C14.8536 22.9454 15.0357 21.9199 15.3561 20.9599V16.8145H10.0038C8.91878 18.9745 8.2998 21.4181 8.2998 23.9999C8.2998 26.5817 8.91878 29.0254 10.0038 31.1854L15.3561 27.0399Z" fill="#FBBC05"/>
<path fill-rule="evenodd" clip-rule="evenodd" d="M24.3196 14.3637C26.6717 14.3637 28.7835 15.1709 30.4438 16.7564L35.0387 12.1673C32.2643 9.58546 28.6378 8 24.3196 8C18.0571 8 12.6393 11.5855 10.0032 16.8146L15.3555 20.96C16.6152 17.1782 20.147 14.3637 24.3196 14.3637Z" fill="#EA4335"/>
</g>
<rect x="0.5" y="0.5" width="47" height="47" rx="23.5" stroke="black" stroke-opacity="0.1"/>
<defs>
<clipPath id="clip0_71_2021">
<rect width="48" height="48" rx="24" fill="white"/>
</clipPath>
</defs>
</svg>
