<svg width="18" height="16" viewBox="0 0 18 16" fill="none" xmlns="http://www.w3.org/2000/svg">
<path d="M2.75 8.90533V14.25C2.75 14.4158 2.81585 14.5747 2.93306 14.6919C3.05027 14.8092 3.20924 14.875 3.375 14.875H14.625C14.7908 14.875 14.9497 14.8092 15.0669 14.6919C15.1842 14.5747 15.25 14.4158 15.25 14.25V8.90545M16.5 5.5V6.75C16.5 7.41304 16.2366 8.04893 15.7678 8.51777C15.2989 8.98661 14.663 9.25 14 9.25C13.337 9.25 12.7011 8.98661 12.2322 8.51777C11.7634 8.04893 11.5 7.41304 11.5 6.75M16.5 5.5L15.3795 1.5783C15.3422 1.44771 15.2634 1.33282 15.1549 1.25103C15.0465 1.16924 14.9144 1.125 14.7786 1.125H3.22144C3.08562 1.125 2.9535 1.16924 2.84507 1.25103C2.73664 1.33282 2.6578 1.44771 2.62049 1.5783L1.5 5.5M16.5 5.5H1.5M11.5 6.75V5.5M11.5 6.75C11.5 7.41304 11.2366 8.04893 10.7678 8.51777C10.2989 8.98661 9.66304 9.25 9 9.25C8.33696 9.25 7.70107 8.98661 7.23223 8.51777C6.76339 8.04893 6.5 7.41304 6.5 6.75M6.5 6.75V5.5M6.5 6.75C6.5 7.41304 6.23661 8.04893 5.76777 8.51777C5.29893 8.98661 4.66304 9.25 4 9.25C3.33696 9.25 2.70107 8.98661 2.23223 8.51777C1.76339 8.04893 1.5 7.41304 1.5 6.75V5.5" stroke="#FFDD00" stroke-width="1.5" stroke-linecap="round" stroke-linejoin="round"/>
</svg>
